<?xml version="1.0" encoding="UTF-8"?>
<svg xmlns="http://www.w3.org/2000/svg" xmlns:xlink="http://www.w3.org/1999/xlink" width="16px" height="16px" viewBox="0 0 16 16" version="1.1">
<g id="surface1">
<path style=" stroke:none;fill-rule:nonzero;fill:rgb(0%,0%,0%);fill-opacity:1;" d="M 4.890625 0.191406 C 4.734375 0.207031 4.425781 0.273438 4.191406 0.332031 C 2.878906 0.667969 1.765625 1.460938 1.035156 2.578125 C 0.132812 3.964844 -0.0820312 5.644531 0.441406 7.234375 C 0.984375 8.882812 2.414062 10.222656 4.109375 10.679688 C 6.546875 11.332031 9.109375 10.207031 10.257812 7.972656 C 10.492188 7.515625 10.660156 7.054688 10.765625 6.546875 C 10.828125 6.257812 10.839844 6.101562 10.839844 5.539062 C 10.84375 4.96875 10.835938 4.824219 10.769531 4.507812 C 10.207031 1.726562 7.691406 -0.121094 4.890625 0.191406 Z M 6.480469 1.023438 C 8.109375 1.40625 9.347656 2.523438 9.867188 4.078125 C 10.140625 4.902344 10.175781 5.757812 9.964844 6.605469 C 9.609375 8.039062 8.59375 9.21875 7.242188 9.761719 C 6.1875 10.1875 5.023438 10.214844 3.980469 9.835938 C 2.457031 9.292969 1.359375 8.027344 1.007812 6.414062 C 0.917969 6.03125 0.917969 4.996094 1.003906 4.605469 C 1.207031 3.691406 1.617188 2.933594 2.273438 2.273438 C 2.925781 1.621094 3.652344 1.222656 4.527344 1.027344 C 4.933594 0.941406 4.980469 0.9375 5.621094 0.949219 C 6.058594 0.957031 6.273438 0.972656 6.480469 1.023438 Z M 6.480469 1.023438 "/>
<path style=" stroke:none;fill-rule:nonzero;fill:rgb(0%,0%,0%);fill-opacity:1;" d="M 2.203125 3.539062 C 2.050781 3.695312 1.796875 4.355469 1.703125 4.808594 C 1.636719 5.144531 1.648438 5.941406 1.722656 6.285156 C 2.113281 8.109375 3.664062 9.371094 5.523438 9.371094 C 5.894531 9.371094 6.394531 9.300781 6.539062 9.230469 C 6.734375 9.136719 6.75 8.890625 6.574219 8.789062 C 6.5 8.746094 6.453125 8.746094 6.183594 8.796875 C 5.722656 8.875 5.539062 8.886719 5.207031 8.851562 C 4.757812 8.804688 4.429688 8.707031 4.027344 8.511719 C 2.875 7.9375 2.164062 6.804688 2.164062 5.539062 C 2.164062 4.957031 2.261719 4.53125 2.519531 4 C 2.617188 3.800781 2.644531 3.703125 2.628906 3.640625 C 2.585938 3.464844 2.332031 3.402344 2.203125 3.539062 Z M 2.203125 3.539062 "/>
<path style=" stroke:none;fill-rule:nonzero;fill:rgb(0%,0%,0%);fill-opacity:1;" d="M 10.03125 8.863281 C 9.980469 8.890625 9.691406 9.15625 9.398438 9.453125 C 8.808594 10.046875 8.769531 10.109375 8.863281 10.324219 C 8.925781 10.484375 9.089844 10.578125 9.25 10.558594 C 9.363281 10.546875 9.4375 10.484375 9.957031 9.964844 C 10.589844 9.335938 10.628906 9.273438 10.527344 9.058594 C 10.433594 8.867188 10.214844 8.78125 10.03125 8.863281 Z M 10.03125 8.863281 "/>
<path style=" stroke:none;fill-rule:nonzero;fill:rgb(0%,0%,0%);fill-opacity:1;" d="M 10.503906 9.847656 C 9.933594 10.046875 9.648438 10.664062 9.859375 11.242188 C 9.921875 11.421875 10.039062 11.542969 12.042969 13.550781 C 14.421875 15.9375 14.308594 15.84375 14.773438 15.84375 C 15.003906 15.84375 15.058594 15.832031 15.25 15.738281 C 15.496094 15.617188 15.636719 15.472656 15.757812 15.210938 C 15.828125 15.066406 15.84375 14.988281 15.839844 14.773438 C 15.839844 14.308594 15.933594 14.421875 13.546875 12.042969 C 11.542969 10.042969 11.417969 9.925781 11.242188 9.859375 C 11.015625 9.777344 10.714844 9.773438 10.503906 9.847656 Z M 10.503906 9.847656 "/>
</g>
</svg>
